{
  "accessors": [
    {
      "bufferView": 2,
      "componentType": 5126,
      "count": 2977,
      "max": [
        1318.50244140625,
        427.1596984863281,
        516.5988159179688
      ],
      "min": [
        -427.1596984863281,
        -427.1596984863281,
        -2080.401123046875
      ],
      "type": "VEC3"
    },
    {
      "bufferView": 2,
      "byteOffset": 35724,
      "componentType": 5126,
      "count": 2977,
      "max": [
        1.0,
        1.0,
        1.0
      ],
      "min": [
        -1.0,
        -1.0,
        -1.0
      ],
      "type": "VEC3"
    },
    {
      "bufferView": 1,
      "componentType": 5126,
      "count": 2977,
      "max": [
        0.9948590397834778,
        0.9947911500930786
      ],
      "min": [
        0.006802527699619532,
        0.004355975892394781
      ],
      "type": "VEC2"
    },
    {
      "bufferView": 1,
      "byteOffset": 23816,
      "componentType": 5126,
      "count": 2977,
      "max": [
        0.9948590397834778,
        0.9947911500930786
      ],
      "min": [
        0.006802527699619532,
        0.004355975892394781
      ],
      "type": "VEC2"
    },
    {
      "bufferView": 0,
      "componentType": 5125,
      "count": 6012,
      "type": "SCALAR"
    }
  ],
  "asset": {
    "extras": {
      "author": "YG3D (https://sketchfab.com/YGMax)",
      "license": "CC-BY-NC-4.0 (http://creativecommons.org/licenses/by-nc/4.0/)",
      "source": "https://sketchfab.com/3d-models/old-water-tank-8da6f7e5ebf14bd18f586396f32270c0",
      "title": "Old Water Tank"
    },
    "generator": "Sketchfab-16.59.0",
    "version": "2.0"
  },
  "bufferViews": [
    {
      "buffer": 0,
      "byteLength": 24048,
      "name": "floatBufferViews",
      "target": 34963
    },
    {
      "buffer": 0,
      "byteLength": 47632,
      "byteOffset": 24048,
      "byteStride": 8,
      "name": "floatBufferViews",
      "target": 34962
    },
    {
      "buffer": 0,
      "byteLength": 71448,
      "byteOffset": 71680,
      "byteStride": 12,
      "name": "floatBufferViews",
      "target": 34962
    }
  ],
  "buffers": [
    {
      "byteLength": 143128,
      "uri": "scene.bin"
    }
  ],
  "extensionsRequired": [
    "KHR_materials_pbrSpecularGlossiness"
  ],
  "extensionsUsed": [
    "KHR_materials_pbrSpecularGlossiness"
  ],
  "images": [
    {
      "uri": "textures/T_Old_Water_Tank_diffuse.jpeg"
    },
    {
      "uri": "textures/T_Old_Water_Tank_specularGlossiness.png"
    },
    {
      "uri": "textures/T_Old_Water_Tank_occlusion.png"
    }
  ],
  "materials": [
    {
      "doubleSided": true,
      "extensions": {
        "KHR_materials_pbrSpecularGlossiness": {
          "diffuseFactor": [
            1.0,
            1.0,
            1.0,
            1.0
          ],
          "diffuseTexture": {
            "index": 0
          },
          "glossinessFactor": 1.0,
          "specularFactor": [
            0.33077456620445655,
            0.33077456620445655,
            0.33077456620445655
          ],
          "specularGlossinessTexture": {
            "index": 1
          }
        }
      },
      "name": "T_Old_Water_Tank",
      "occlusionTexture": {
        "index": 2
      }
    }
  ],
  "meshes": [
    {
      "name": "Old_Water_Tank_T_Old_Water_Tank_0",
      "primitives": [
        {
          "attributes": {
            "NORMAL": 1,
            "POSITION": 0,
            "TEXCOORD_0": 2,
            "TEXCOORD_1": 3
          },
          "indices": 4,
          "material": 0,
          "mode": 4
        }
      ]
    }
  ],
  "nodes": [
    {
      "children": [
        1
      ],
      "matrix": [
        1.0,
        0.0,
        0.0,
        0.0,
        0.0,
        2.220446049250313e-16,
        -1.0,
        0.0,
        0.0,
        1.0,
        2.220446049250313e-16,
        0.0,
        0.0,
        0.0,
        0.0,
        1.0
      ],
      "name": "Sketchfab_model"
    },
    {
      "children": [
        2
      ],
      "matrix": [
        0.009999999776482582,
        0.0,
        0.0,
        0.0,
        0.0,
        0.0,
        0.009999999776482582,
        0.0,
        0.0,
        -0.009999999776482582,
        0.0,
        0.0,
        0.0,
        0.0,
        0.0,
        1.0
      ],
      "name": "bc5103f04e794bd383c5a52350102c97.fbx"
    },
    {
      "children": [
        3
      ],
      "name": "RootNode"
    },
    {
      "children": [
        4
      ],
      "matrix": [
        0.8314160108566284,
        0.0,
        0.0,
        0.0,
        0.0,
        1.846114396590056e-16,
        -0.8314160108566284,
        0.0,
        0.0,
        0.8314160108566284,
        1.846114396590056e-16,
        0.0,
        0.0,
        0.0,
        0.0,
        1.0
      ],
      "name": "Old_Water_Tank"
    },
    {
      "children": [
        5
      ],
      "matrix": [
        1.0,
        0.0,
        -0.0,
        0.0,
        0.0,
        1.0,
        0.0,
        0.0,
        0.0,
        0.0,
        1.0,
        0.0,
        -445.67138671875,
        -5.6761495216051117e-05,
        2080.45263671875,
        1.0
      ],
      "name": "Object_4"
    },
    {
      "mesh": 0,
      "name": "Old_Water_Tank_T_Old_Water_Tank_0"
    }
  ],
  "samplers": [
    {
      "magFilter": 9729,
      "minFilter": 9987,
      "wrapS": 10497,
      "wrapT": 10497
    }
  ],
  "scene": 0,
  "scenes": [
    {
      "name": "Sketchfab_Scene",
      "nodes": [
        0
      ]
    }
  ],
  "textures": [
    {
      "sampler": 0,
      "source": 0
    },
    {
      "sampler": 0,
      "source": 1
    },
    {
      "sampler": 0,
      "source": 2
    }
  ]
}
